<?xml version="1.0" encoding="UTF-8"?>
<!DOCTYPE svg PUBLIC "-//W3C//DTD SVG 1.1//EN" "http://www.w3.org/Graphics/SVG/1.1/DTD/svg11.dtd">
<svg xmlns="http://www.w3.org/2000/svg" version="1.1" width="1236px" height="406px" style="shape-rendering:geometricPrecision; text-rendering:geometricPrecision; image-rendering:optimizeQuality; fill-rule:evenodd; clip-rule:evenodd" xmlns:xlink="http://www.w3.org/1999/xlink">
<g><path style="opacity:1" fill="#fefefe" d="M -0.5,-0.5 C 411.5,-0.5 823.5,-0.5 1235.5,-0.5C 1235.5,134.833 1235.5,270.167 1235.5,405.5C 823.5,405.5 411.5,405.5 -0.5,405.5C -0.5,270.167 -0.5,134.833 -0.5,-0.5 Z"/></g>
<g><path style="opacity:1" fill="#0caeef" d="M 616.5,40.5 C 624.833,40.5 633.167,40.5 641.5,40.5C 641.168,87.6696 641.501,134.67 642.5,181.5C 655.677,181.829 668.677,181.495 681.5,180.5C 681.5,168.5 681.5,156.5 681.5,144.5C 690.5,144.5 699.5,144.5 708.5,144.5C 708.5,218.167 708.5,291.833 708.5,365.5C 699.833,365.5 691.167,365.5 682.5,365.5C 682.5,311.833 682.5,258.167 682.5,204.5C 668.833,204.5 655.167,204.5 641.5,204.5C 641.5,217.833 641.5,231.167 641.5,244.5C 633.167,244.5 624.833,244.5 616.5,244.5C 616.5,176.5 616.5,108.5 616.5,40.5 Z"/></g>
<g><path style="opacity:1" fill="#48c3f2" d="M 616.5,40.5 C 624.984,39.507 633.651,39.1736 642.5,39.5C 642.5,86.8333 642.5,134.167 642.5,181.5C 641.501,134.67 641.168,87.6696 641.5,40.5C 633.167,40.5 624.833,40.5 616.5,40.5 Z"/></g>
<g><path style="opacity:1" fill="#e3f6fc" d="M 642.5,39.5 C 643.499,86.3304 643.832,133.33 643.5,180.5C 656.167,180.5 668.833,180.5 681.5,180.5C 668.677,181.495 655.677,181.829 642.5,181.5C 642.5,134.167 642.5,86.8333 642.5,39.5 Z"/></g>
<g><path style="opacity:1" fill="#030303" d="M 777.5,143.5 C 799.662,140.421 818.495,146.755 834,162.5C 847.263,182.674 847.93,203.34 836,224.5C 823.852,239.487 808.019,246.82 788.5,246.5C 749.586,244.086 731.42,223.419 734,184.5C 739.982,161.682 754.482,148.016 777.5,143.5 Z"/></g>
<g><path style="opacity:1" fill="#656565" d="M 118.5,184.5 C 124.167,184.5 129.833,184.5 135.5,184.5C 135.5,171.5 135.5,158.5 135.5,145.5C 105.5,145.5 75.5,145.5 45.5,145.5C 45.5,158.5 45.5,171.5 45.5,184.5C 50.8333,184.5 56.1667,184.5 61.5,184.5C 61.1746,176.648 61.508,168.982 62.5,161.5C 62.5,161.833 62.5,162.167 62.5,162.5C 62.5,170.167 62.5,177.833 62.5,185.5C 56.5,185.5 50.5,185.5 44.5,185.5C 44.5,171.833 44.5,158.167 44.5,144.5C 75.1667,144.5 105.833,144.5 136.5,144.5C 136.5,158.167 136.5,171.833 136.5,185.5C 130.31,185.823 124.31,185.49 118.5,184.5 Z"/></g>
<g><path style="opacity:1" fill="#686868" d="M 206.5,161.5 C 206.5,156.167 206.5,150.833 206.5,145.5C 190.833,145.5 175.167,145.5 159.5,145.5C 159.5,150.833 159.5,156.167 159.5,161.5C 158.511,156.025 158.178,150.358 158.5,144.5C 174.833,144.5 191.167,144.5 207.5,144.5C 207.822,150.358 207.489,156.025 206.5,161.5 Z"/></g>
<g><path style="opacity:1" fill="#6e6e6e" d="M 350.5,145.5 C 328.5,145.5 306.5,145.5 284.5,145.5C 284.5,150.833 284.5,156.167 284.5,161.5C 283.511,156.025 283.178,150.358 283.5,144.5C 306.006,144.169 328.34,144.503 350.5,145.5 Z"/></g>
<g><path style="opacity:1" fill="#5e5e5e" d="M 407.5,145.5 C 436.662,144.502 465.995,144.169 495.5,144.5C 495.828,155.346 495.494,166.013 494.5,176.5C 494.5,166.167 494.5,155.833 494.5,145.5C 465.5,145.5 436.5,145.5 407.5,145.5 Z"/></g>
<g><path style="opacity:1" fill="#030303" d="M 563.5,151.5 C 563.56,152.043 563.893,152.376 564.5,152.5C 565.474,150.257 565.808,147.924 565.5,145.5C 570.833,145.5 576.167,145.5 581.5,145.5C 581.5,155.167 581.5,164.833 581.5,174.5C 575.537,175.045 569.87,174.379 564.5,172.5C 561.264,162.382 554.597,158.882 544.5,162C 539.084,167.229 539.417,172.229 545.5,177C 553.986,180.743 562.319,184.743 570.5,189C 585.556,199.171 590.056,213.004 584,230.5C 580.126,238.867 573.626,244.034 564.5,246C 553.923,248.524 545.256,245.691 538.5,237.5C 538.44,236.957 538.107,236.624 537.5,236.5C 536.52,239.086 536.187,241.753 536.5,244.5C 531.167,244.5 525.833,244.5 520.5,244.5C 520.5,233.5 520.5,222.5 520.5,211.5C 526.167,211.5 531.833,211.5 537.5,211.5C 538.345,225.202 545.345,230.702 558.5,228C 565.381,221.029 565.048,214.362 557.5,208C 549.744,204.191 542.078,200.191 534.5,196C 520.246,186.498 516.08,173.664 522,157.5C 529.887,145.815 540.721,141.648 554.5,145C 557.961,146.643 560.961,148.81 563.5,151.5 Z"/></g>
<g><path style="opacity:1" fill="#6f6f6f" d="M 903.5,162.5 C 907.97,161.514 912.637,161.181 917.5,161.5C 917.5,156.167 917.5,150.833 917.5,145.5C 899.5,145.5 881.5,145.5 863.5,145.5C 863.5,150.833 863.5,156.167 863.5,161.5C 862.511,156.025 862.178,150.358 862.5,144.5C 881.167,144.5 899.833,144.5 918.5,144.5C 918.5,150.5 918.5,156.5 918.5,162.5C 913.5,162.5 908.5,162.5 903.5,162.5 Z"/></g>
<g><path style="opacity:1" fill="#646464" d="M 1035.5,145.5 C 1014.83,145.5 994.167,145.5 973.5,145.5C 973.5,150.833 973.5,156.167 973.5,161.5C 973.167,161.5 972.833,161.5 972.5,161.5C 972.5,155.833 972.5,150.167 972.5,144.5C 993.673,144.169 1014.67,144.503 1035.5,145.5 Z"/></g>
<g><path style="opacity:1" fill="#050505" d="M 1120.5,238.5 C 1120.44,237.957 1120.11,237.624 1119.5,237.5C 1118.53,239.743 1118.19,242.076 1118.5,244.5C 1113.17,244.5 1107.83,244.5 1102.5,244.5C 1102.5,233.5 1102.5,222.5 1102.5,211.5C 1107.83,211.5 1113.17,211.5 1118.5,211.5C 1118.98,219.289 1122.65,225.123 1129.5,229C 1136.67,230.668 1141.83,228.168 1145,221.5C 1145.92,216.495 1144.42,212.328 1140.5,209C 1131.83,204.333 1123.17,199.667 1114.5,195C 1099.3,183.666 1096.46,169.833 1106,153.5C 1114.06,144.908 1123.9,142.074 1135.5,145C 1139.79,146.396 1143.29,148.896 1146,152.5C 1146.5,149.854 1146.66,147.187 1146.5,144.5C 1152.17,144.5 1157.83,144.5 1163.5,144.5C 1163.5,154.833 1163.5,165.167 1163.5,175.5C 1157.83,175.5 1152.17,175.5 1146.5,175.5C 1146.01,168.67 1142.67,163.836 1136.5,161C 1131.24,159.574 1126.74,160.741 1123,164.5C 1122.33,167.167 1122.33,169.833 1123,172.5C 1124.83,174.333 1126.67,176.167 1128.5,178C 1135.83,181.333 1143.17,184.667 1150.5,188C 1168.96,199.964 1173.13,215.798 1163,235.5C 1153.78,245.523 1142.62,248.69 1129.5,245C 1126.06,243.386 1123.06,241.22 1120.5,238.5 Z"/></g>
<g><path style="opacity:1" fill="#010101" d="M 118.5,184.5 C 118.5,176.833 118.5,169.167 118.5,161.5C 113.5,161.5 108.5,161.5 103.5,161.5C 103.5,183.833 103.5,206.167 103.5,228.5C 108.5,228.5 113.5,228.5 118.5,228.5C 118.5,234.167 118.5,239.833 118.5,245.5C 99.8333,245.5 81.1667,245.5 62.5,245.5C 62.5,239.833 62.5,234.167 62.5,228.5C 67.5,228.5 72.5,228.5 77.5,228.5C 77.5,206.167 77.5,183.833 77.5,161.5C 72.5,161.5 67.5,161.5 62.5,161.5C 61.508,168.982 61.1746,176.648 61.5,184.5C 56.1667,184.5 50.8333,184.5 45.5,184.5C 45.5,171.5 45.5,158.5 45.5,145.5C 75.5,145.5 105.5,145.5 135.5,145.5C 135.5,158.5 135.5,171.5 135.5,184.5C 129.833,184.5 124.167,184.5 118.5,184.5 Z"/></g>
<g><path style="opacity:1" fill="#030303" d="M 262.5,161.5 C 258.5,161.5 254.5,161.5 250.5,161.5C 250.5,183.833 250.5,206.167 250.5,228.5C 254.5,228.5 258.5,228.5 262.5,228.5C 262.5,234.167 262.5,239.833 262.5,245.5C 246.5,245.5 230.5,245.5 214.5,245.5C 214.5,239.833 214.5,234.167 214.5,228.5C 217.833,228.5 221.167,228.5 224.5,228.5C 224.5,219.5 224.5,210.5 224.5,201.5C 215.348,200.506 206.015,200.173 196.5,200.5C 196.173,210.015 196.506,219.348 197.5,228.5C 200.5,228.5 203.5,228.5 206.5,228.5C 206.5,233.833 206.5,239.167 206.5,244.5C 190.833,244.5 175.167,244.5 159.5,244.5C 159.5,239.167 159.5,233.833 159.5,228.5C 163.167,228.5 166.833,228.5 170.5,228.5C 171.497,206.34 171.831,184.006 171.5,161.5C 167.5,161.5 163.5,161.5 159.5,161.5C 159.5,156.167 159.5,150.833 159.5,145.5C 175.167,145.5 190.833,145.5 206.5,145.5C 206.5,150.833 206.5,156.167 206.5,161.5C 203.5,161.5 200.5,161.5 197.5,161.5C 197.5,168.833 197.5,176.167 197.5,183.5C 206.5,183.5 215.5,183.5 224.5,183.5C 224.5,176.167 224.5,168.833 224.5,161.5C 221.167,161.5 217.833,161.5 214.5,161.5C 214.5,155.833 214.5,150.167 214.5,144.5C 230.5,144.5 246.5,144.5 262.5,144.5C 262.5,150.167 262.5,155.833 262.5,161.5 Z"/></g>
<g><path style="opacity:1" fill="#030303" d="M 350.5,145.5 C 371.95,149.368 380.116,162.034 375,183.5C 371.308,190.026 366.141,195.026 359.5,198.5C 364.8,208.147 370.134,217.813 375.5,227.5C 379.783,228.492 384.116,228.826 388.5,228.5C 388.5,234.167 388.5,239.833 388.5,245.5C 378.167,245.5 367.833,245.5 357.5,245.5C 350.532,230.895 343.532,216.228 336.5,201.5C 332.167,201.5 327.833,201.5 323.5,201.5C 323.5,210.5 323.5,219.5 323.5,228.5C 327.833,228.5 332.167,228.5 336.5,228.5C 336.5,233.833 336.5,239.167 336.5,244.5C 319.167,244.5 301.833,244.5 284.5,244.5C 284.5,239.167 284.5,233.833 284.5,228.5C 288.833,228.5 293.167,228.5 297.5,228.5C 297.5,206.167 297.5,183.833 297.5,161.5C 293.167,161.5 288.833,161.5 284.5,161.5C 284.5,156.167 284.5,150.833 284.5,145.5C 306.5,145.5 328.5,145.5 350.5,145.5 Z"/></g>
<g><path style="opacity:1" fill="#000000" d="M 407.5,145.5 C 436.5,145.5 465.5,145.5 494.5,145.5C 494.5,155.833 494.5,166.167 494.5,176.5C 488.5,176.5 482.5,176.5 476.5,176.5C 476.5,171.833 476.5,167.167 476.5,162.5C 466.013,161.506 455.346,161.172 444.5,161.5C 444.175,169.352 444.508,177.018 445.5,184.5C 453.316,185.492 461.316,185.826 469.5,185.5C 469.5,190.833 469.5,196.167 469.5,201.5C 461.167,201.5 452.833,201.5 444.5,201.5C 444.173,210.682 444.507,219.682 445.5,228.5C 455.833,228.5 466.167,228.5 476.5,228.5C 476.5,223.5 476.5,218.5 476.5,213.5C 482.5,213.5 488.5,213.5 494.5,213.5C 494.5,223.833 494.5,234.167 494.5,244.5C 465.5,244.5 436.5,244.5 407.5,244.5C 407.5,239.167 407.5,233.833 407.5,228.5C 411.167,228.5 414.833,228.5 418.5,228.5C 419.497,206.34 419.831,184.006 419.5,161.5C 415.5,161.5 411.5,161.5 407.5,161.5C 407.5,156.167 407.5,150.833 407.5,145.5 Z"/></g>
<g><path style="opacity:1" fill="#8b8b8b" d="M 581.5,175.5 C 581.5,175.167 581.5,174.833 581.5,174.5C 581.5,164.833 581.5,155.167 581.5,145.5C 576.167,145.5 570.833,145.5 565.5,145.5C 565.808,147.924 565.474,150.257 564.5,152.5C 563.893,152.376 563.56,152.043 563.5,151.5C 564.468,149.393 564.802,147.059 564.5,144.5C 570.5,144.5 576.5,144.5 582.5,144.5C 582.828,155.014 582.494,165.347 581.5,175.5 Z"/></g>
<g><path style="opacity:1" fill="#010101" d="M 903.5,162.5 C 903.5,184.5 903.5,206.5 903.5,228.5C 913.5,228.5 923.5,228.5 933.5,228.5C 933.5,218.167 933.5,207.833 933.5,197.5C 939.833,197.5 946.167,197.5 952.5,197.5C 952.5,213.167 952.5,228.833 952.5,244.5C 922.833,244.5 893.167,244.5 863.5,244.5C 863.5,239.167 863.5,233.833 863.5,228.5C 868.167,228.5 872.833,228.5 877.5,228.5C 877.5,206.167 877.5,183.833 877.5,161.5C 872.833,161.5 868.167,161.5 863.5,161.5C 863.5,156.167 863.5,150.833 863.5,145.5C 881.5,145.5 899.5,145.5 917.5,145.5C 917.5,150.833 917.5,156.167 917.5,161.5C 912.637,161.181 907.97,161.514 903.5,162.5 Z"/></g>
<g><path style="opacity:1" fill="#010101" d="M 1035.5,145.5 C 1064.06,149.397 1079.06,165.73 1080.5,194.5C 1080.64,219.504 1068.97,236.004 1045.5,244C 1042.52,244.498 1039.52,244.665 1036.5,244.5C 1015.5,244.5 994.5,244.5 973.5,244.5C 973.5,239.167 973.5,233.833 973.5,228.5C 978.167,228.5 982.833,228.5 987.5,228.5C 988.497,206.34 988.831,184.006 988.5,161.5C 983.5,161.5 978.5,161.5 973.5,161.5C 973.5,156.167 973.5,150.833 973.5,145.5C 994.167,145.5 1014.83,145.5 1035.5,145.5 Z"/></g>
<g><path style="opacity:1" fill="#8e8e8e" d="M 476.5,162.5 C 466.167,162.5 455.833,162.5 445.5,162.5C 445.5,169.833 445.5,177.167 445.5,184.5C 444.508,177.018 444.175,169.352 444.5,161.5C 455.346,161.172 466.013,161.506 476.5,162.5 Z"/></g>
<g><path style="opacity:1" fill="#cdcdcd" d="M 62.5,162.5 C 62.5,162.167 62.5,161.833 62.5,161.5C 67.5,161.5 72.5,161.5 77.5,161.5C 77.5,183.833 77.5,206.167 77.5,228.5C 72.5,228.5 67.5,228.5 62.5,228.5C 66.97,227.514 71.6367,227.181 76.5,227.5C 76.5,205.833 76.5,184.167 76.5,162.5C 71.8333,162.5 67.1667,162.5 62.5,162.5 Z"/></g>
<g><path style="opacity:1" fill="#858585" d="M 159.5,161.5 C 163.5,161.5 167.5,161.5 171.5,161.5C 171.831,184.006 171.497,206.34 170.5,228.5C 170.5,206.5 170.5,184.5 170.5,162.5C 166.629,162.815 162.962,162.482 159.5,161.5 Z"/></g>
<g><path style="opacity:1" fill="#c0c0c0" d="M 262.5,161.5 C 259.038,162.482 255.371,162.815 251.5,162.5C 251.5,184.167 251.5,205.833 251.5,227.5C 255.371,227.185 259.038,227.518 262.5,228.5C 258.5,228.5 254.5,228.5 250.5,228.5C 250.5,206.167 250.5,183.833 250.5,161.5C 254.5,161.5 258.5,161.5 262.5,161.5 Z"/></g>
<g><path style="opacity:1" fill="#868686" d="M 339.5,162.5 C 334.5,162.5 329.5,162.5 324.5,162.5C 324.5,169.833 324.5,177.167 324.5,184.5C 328.833,184.5 333.167,184.5 337.5,184.5C 333.03,185.486 328.363,185.819 323.5,185.5C 323.5,177.5 323.5,169.5 323.5,161.5C 329.026,161.179 334.36,161.512 339.5,162.5 Z"/></g>
<g><path style="opacity:1" fill="#fcfcfc" d="M 339.5,162.5 C 345.876,163.174 349.209,166.674 349.5,173C 348.936,180.397 344.936,184.23 337.5,184.5C 333.167,184.5 328.833,184.5 324.5,184.5C 324.5,177.167 324.5,169.833 324.5,162.5C 329.5,162.5 334.5,162.5 339.5,162.5 Z"/></g>
<g><path style="opacity:1" fill="#7e7e7e" d="M 407.5,161.5 C 411.5,161.5 415.5,161.5 419.5,161.5C 419.831,184.006 419.497,206.34 418.5,228.5C 418.5,206.5 418.5,184.5 418.5,162.5C 414.629,162.815 410.962,162.482 407.5,161.5 Z"/></g>
<g><path style="opacity:1" fill="#fbfbfb" d="M 783.5,161.5 C 800.555,160.439 811.388,168.106 816,184.5C 817.715,195.741 816.049,206.408 811,216.5C 802.12,227.513 790.953,230.68 777.5,226C 767.897,220.714 762.73,212.547 762,201.5C 759.126,187.431 762.959,175.598 773.5,166C 776.815,164.17 780.149,162.67 783.5,161.5 Z"/></g>
<g><path style="opacity:1" fill="#bfbfbf" d="M 863.5,161.5 C 868.167,161.5 872.833,161.5 877.5,161.5C 877.5,183.833 877.5,206.167 877.5,228.5C 872.833,228.5 868.167,228.5 863.5,228.5C 867.634,227.515 871.968,227.182 876.5,227.5C 876.5,205.833 876.5,184.167 876.5,162.5C 871.968,162.818 867.634,162.485 863.5,161.5 Z"/></g>
<g><path style="opacity:1" fill="#8c8c8c" d="M 972.5,161.5 C 972.833,161.5 973.167,161.5 973.5,161.5C 978.5,161.5 983.5,161.5 988.5,161.5C 988.831,184.006 988.497,206.34 987.5,228.5C 987.5,206.5 987.5,184.5 987.5,162.5C 982.305,162.821 977.305,162.487 972.5,161.5 Z"/></g>
<g><path style="opacity:1" fill="#5c5c5c" d="M 1027.5,162.5 C 1023.17,162.5 1018.83,162.5 1014.5,162.5C 1014.5,184.5 1014.5,206.5 1014.5,228.5C 1013.5,206.34 1013.17,184.006 1013.5,161.5C 1018.36,161.181 1023.03,161.514 1027.5,162.5 Z"/></g>
<g><path style="opacity:1" fill="#fcfcfc" d="M 1027.5,162.5 C 1041.8,163.63 1050.3,171.297 1053,185.5C 1054.76,197.256 1052.76,208.256 1047,218.5C 1042.53,224.107 1036.7,227.273 1029.5,228C 1024.51,228.499 1019.51,228.666 1014.5,228.5C 1014.5,206.5 1014.5,184.5 1014.5,162.5C 1018.83,162.5 1023.17,162.5 1027.5,162.5 Z"/></g>
<g><path style="opacity:1" fill="#4b4b4b" d="M 564.5,172.5 C 569.87,174.379 575.537,175.045 581.5,174.5C 581.5,174.833 581.5,175.167 581.5,175.5C 575.833,175.5 570.167,175.5 564.5,175.5C 564.5,174.5 564.5,173.5 564.5,172.5 Z"/></g>
<g><path style="opacity:1" fill="#3e3e3e" d="M 445.5,184.5 C 453.833,184.5 462.167,184.5 470.5,184.5C 470.5,190.167 470.5,195.833 470.5,201.5C 470.167,201.5 469.833,201.5 469.5,201.5C 469.5,196.167 469.5,190.833 469.5,185.5C 461.316,185.826 453.316,185.492 445.5,184.5 Z"/></g>
<g><path style="opacity:1" fill="#555555" d="M 224.5,201.5 C 215.5,201.5 206.5,201.5 197.5,201.5C 197.5,210.5 197.5,219.5 197.5,228.5C 196.506,219.348 196.173,210.015 196.5,200.5C 206.015,200.173 215.348,200.506 224.5,201.5 Z"/></g>
<g><path style="opacity:1" fill="#787878" d="M 469.5,201.5 C 469.833,201.5 470.167,201.5 470.5,201.5C 462.35,202.493 454.017,202.826 445.5,202.5C 445.5,210.833 445.5,219.167 445.5,227.5C 445.5,227.833 445.5,228.167 445.5,228.5C 444.507,219.682 444.173,210.682 444.5,201.5C 452.833,201.5 461.167,201.5 469.5,201.5 Z"/></g>
<g><path style="opacity:1" fill="#5ec8f4" d="M 682.5,365.5 C 681.501,312.336 681.168,259.003 681.5,205.5C 668.5,205.5 655.5,205.5 642.5,205.5C 642.5,218.833 642.5,232.167 642.5,245.5C 633.651,245.826 624.984,245.493 616.5,244.5C 624.833,244.5 633.167,244.5 641.5,244.5C 641.5,231.167 641.5,217.833 641.5,204.5C 655.167,204.5 668.833,204.5 682.5,204.5C 682.5,258.167 682.5,311.833 682.5,365.5 Z"/></g>
<g><path style="opacity:1" fill="#505050" d="M 1118.5,211.5 C 1113.17,211.5 1107.83,211.5 1102.5,211.5C 1102.5,222.5 1102.5,233.5 1102.5,244.5C 1107.83,244.5 1113.17,244.5 1118.5,244.5C 1118.19,242.076 1118.53,239.743 1119.5,237.5C 1120.11,237.624 1120.44,237.957 1120.5,238.5C 1119.53,240.607 1119.2,242.941 1119.5,245.5C 1113.5,245.5 1107.5,245.5 1101.5,245.5C 1101.5,233.833 1101.5,222.167 1101.5,210.5C 1107.36,210.178 1113.02,210.511 1118.5,211.5 Z"/></g>
<g><path style="opacity:1" fill="#cccccc" d="M 476.5,213.5 C 476.5,218.5 476.5,223.5 476.5,228.5C 466.167,228.5 455.833,228.5 445.5,228.5C 445.5,228.167 445.5,227.833 445.5,227.5C 455.5,227.5 465.5,227.5 475.5,227.5C 475.181,222.637 475.514,217.97 476.5,213.5 Z"/></g>
<g><path style="opacity:1" fill="#4b4b4b" d="M 206.5,228.5 C 207.489,233.975 207.822,239.642 207.5,245.5C 191.325,245.83 175.325,245.496 159.5,244.5C 175.167,244.5 190.833,244.5 206.5,244.5C 206.5,239.167 206.5,233.833 206.5,228.5 Z"/></g>
<g><path style="opacity:1" fill="#5c5c5c" d="M 284.5,228.5 C 284.5,233.833 284.5,239.167 284.5,244.5C 301.833,244.5 319.167,244.5 336.5,244.5C 319.008,245.497 301.341,245.83 283.5,245.5C 283.178,239.642 283.511,233.975 284.5,228.5 Z"/></g>
<g><path style="opacity:1" fill="#4c4c4c" d="M 494.5,213.5 C 495.494,223.987 495.828,234.654 495.5,245.5C 465.995,245.831 436.662,245.498 407.5,244.5C 436.5,244.5 465.5,244.5 494.5,244.5C 494.5,234.167 494.5,223.833 494.5,213.5 Z"/></g>
<g><path style="opacity:1" fill="#4b4b4b" d="M 538.5,237.5 C 537.527,239.948 537.194,242.615 537.5,245.5C 531.642,245.822 525.975,245.489 520.5,244.5C 525.833,244.5 531.167,244.5 536.5,244.5C 536.187,241.753 536.52,239.086 537.5,236.5C 538.107,236.624 538.44,236.957 538.5,237.5 Z"/></g>
<g><path style="opacity:1" fill="#555555" d="M 863.5,228.5 C 863.5,233.833 863.5,239.167 863.5,244.5C 893.167,244.5 922.833,244.5 952.5,244.5C 922.671,245.498 892.671,245.831 862.5,245.5C 862.178,239.642 862.511,233.975 863.5,228.5 Z"/></g>
<g><path style="opacity:1" fill="#4d4d4d" d="M 973.5,228.5 C 973.5,233.833 973.5,239.167 973.5,244.5C 994.5,244.5 1015.5,244.5 1036.5,244.5C 1015.34,245.497 994.007,245.831 972.5,245.5C 972.178,239.642 972.511,233.975 973.5,228.5 Z"/></g>
</svg>
